<svg width="44" height="44" viewBox="0 0 44 44" fill="none" xmlns="http://www.w3.org/2000/svg">
<path fill-rule="evenodd" clip-rule="evenodd" d="M38.5 20.1664C38.4998 19.3995 38.3393 18.641 38.0286 17.9397C37.7179 17.2385 37.264 16.61 36.696 16.0946C37.6182 13.6398 37.0957 10.6459 34.8975 8.8676C33.9763 8.12185 32.8621 7.65334 31.6848 7.51669C30.5074 7.38003 29.3155 7.58086 28.248 8.09576C27.7152 7.3866 27.033 6.80327 26.2497 6.3871C24.7408 5.58226 22.9442 5.3971 21.2245 5.73443C20.1656 5.94079 19.1697 6.39216 18.3165 7.05242C17.4633 7.71268 16.7766 8.56349 16.3112 9.53676C16.1449 9.44028 15.9749 9.35038 15.8015 9.26726C14.2248 8.5211 12.3347 8.42026 10.4592 9.36443C7.8815 10.6624 6.55417 13.6783 7.0785 16.4228C6.78272 16.688 6.52117 16.9929 6.29383 17.3376C5.74383 18.1809 5.5 19.1544 5.5 20.1664C5.49999 20.6511 5.69189 21.116 6.03373 21.4596C6.37556 21.8031 6.83953 21.9973 7.32417 21.9998H36.6758C37.1605 21.9973 37.6244 21.8031 37.9663 21.4596C38.3081 21.116 38.5 20.6511 38.5 20.1664ZM25.8683 18.7639C25.6663 18.3217 25.2968 17.9779 24.8413 17.8081C24.3858 17.6382 23.8814 17.6563 23.4392 17.8583C22.9967 18.0603 22.4921 18.0783 22.0364 17.9083C21.5806 17.7382 21.2111 17.3941 21.0091 16.9517C20.8071 16.5092 20.7891 16.0046 20.9591 15.5489C21.1291 15.0931 21.4732 14.7236 21.9157 14.5216C23.2426 13.9158 24.7558 13.8618 26.1225 14.3717C27.4892 14.8816 28.5973 15.9135 29.2032 17.2404C29.405 17.6829 29.4227 18.1874 29.2525 18.643C29.0823 19.0985 28.7381 19.4678 28.2957 19.6696C27.8532 19.8714 27.3487 19.8891 26.8931 19.7189C26.4376 19.5488 26.0683 19.2046 25.8665 18.7621" fill="#D3B486"/>
<path d="M37.3273 27.9105C37.8443 26.8197 36.968 25.6665 35.7617 25.6665H8.23968C7.03335 25.6665 6.15701 26.8215 6.67585 27.9105C8.23968 31.2013 11.107 33.8358 14.6252 35.3758V36.6665C14.6252 37.1527 14.8183 37.6191 15.1622 37.9629C15.506 38.3067 15.9723 38.4998 16.4585 38.4998H27.5428C28.0291 38.4998 28.4954 38.3067 28.8392 37.9629C29.183 37.6191 29.3762 37.1527 29.3762 36.6665V35.3758C32.8925 33.8358 35.7617 31.2013 37.3255 27.9105" fill="#D3B486"/>
</svg>
