<svg width="36" height="36" viewBox="0 0 36 36" fill="none" xmlns="http://www.w3.org/2000/svg">
<path d="M29.9318 8.3146C26.8269 5.22822 22.644 3.46932 18.2665 3.4093C13.889 3.34929 9.65947 4.99287 6.4711 7.99297C3.28274 10.9931 1.3851 15.1148 1.1789 19.4879C0.972704 23.861 2.47409 28.143 5.36602 31.4298L5.37868 31.4439C5.40188 31.4685 5.42368 31.4938 5.44899 31.5177C5.50102 31.5768 5.56008 31.6436 5.62969 31.7132C5.90268 32.0033 6.23263 32.234 6.59887 32.3908C6.96512 32.5476 7.35979 32.6271 7.75817 32.6243C8.15655 32.6215 8.55007 32.5366 8.9141 32.3747C9.27813 32.2128 9.60483 31.9776 9.87376 31.6837C10.9085 30.5591 12.1653 29.6614 13.5648 29.0473C14.9642 28.4333 16.4758 28.1162 18.004 28.1162C19.5322 28.1162 21.0438 28.4333 22.4432 29.0473C23.8426 29.6614 25.0995 30.5591 26.1342 31.6837C26.4051 31.9791 26.7345 32.2151 27.1013 32.3767C27.4682 32.5383 27.8646 32.6219 28.2655 32.6223C28.6664 32.6227 29.063 32.5399 29.4302 32.379C29.7974 32.2182 30.1272 31.9828 30.3987 31.6879L30.6244 31.4418L30.637 31.4277C33.4865 28.2101 35.0004 24.0263 34.8697 19.7303C34.7391 15.4344 32.9737 11.3503 29.9339 8.31179L29.9318 8.3146ZM16.8748 9.00015C16.8748 8.70178 16.9933 8.41563 17.2043 8.20465C17.4153 7.99367 17.7014 7.87515 17.9998 7.87515C18.2981 7.87515 18.5843 7.99367 18.7953 8.20465C19.0062 8.41563 19.1248 8.70178 19.1248 9.00015V11.2501C19.1248 11.5485 19.0062 11.8347 18.7953 12.0456C18.5843 12.2566 18.2981 12.3751 17.9998 12.3751C17.7014 12.3751 17.4153 12.2566 17.2043 12.0456C16.9933 11.8347 16.8748 11.5485 16.8748 11.2501V9.00015ZM8.99977 21.3751H6.74977C6.4514 21.3751 6.16526 21.2566 5.95428 21.0456C5.7433 20.8347 5.62477 20.5485 5.62477 20.2501C5.62477 19.9518 5.7433 19.6656 5.95428 19.4546C6.16526 19.2437 6.4514 19.1251 6.74977 19.1251H8.99977C9.29814 19.1251 9.58429 19.2437 9.79527 19.4546C10.0062 19.6656 10.1248 19.9518 10.1248 20.2501C10.1248 20.5485 10.0062 20.8347 9.79527 21.0456C9.58429 21.2566 9.29814 21.3751 8.99977 21.3751ZM12.431 14.6814C12.2201 14.8922 11.934 15.0106 11.6358 15.0106C11.3375 15.0106 11.0515 14.8922 10.8406 14.6814L9.24938 13.0909C9.03838 12.8799 8.91984 12.5937 8.91984 12.2953C8.91984 11.9969 9.03838 11.7108 9.24938 11.4998C9.46038 11.2888 9.74656 11.1702 10.045 11.1702C10.3434 11.1702 10.6295 11.2888 10.8406 11.4998L12.431 13.0909C12.6418 13.3019 12.7603 13.5879 12.7603 13.8862C12.7603 14.1844 12.6418 14.4704 12.431 14.6814ZM22.9287 16.3056L19.5888 21.6142C19.4522 21.8036 19.286 21.9698 19.0966 22.1064C18.6395 22.4253 18.075 22.5511 17.5257 22.4564C16.9764 22.3617 16.4866 22.0542 16.1626 21.6006C15.8386 21.147 15.7065 20.584 15.7951 20.0336C15.8837 19.4833 16.1858 18.9901 16.6357 18.6611L21.9443 15.3212C22.065 15.2371 22.2085 15.192 22.3556 15.192C22.5027 15.192 22.6463 15.2371 22.767 15.3212C22.9185 15.4307 23.0206 15.5956 23.0509 15.7801C23.0812 15.9645 23.0373 16.1535 22.9287 16.3056ZM25.159 14.6814C24.9463 14.8835 24.6631 14.9945 24.3697 14.9907C24.0764 14.9869 23.7961 14.8687 23.5886 14.6613C23.3812 14.4538 23.263 14.1736 23.2592 13.8802C23.2555 13.5868 23.3665 13.3036 23.5685 13.0909L25.159 11.4998C25.37 11.2888 25.6562 11.1702 25.9546 11.1702C26.253 11.1702 26.5392 11.2888 26.7502 11.4998C26.9612 11.7108 27.0797 11.9969 27.0797 12.2953C27.0797 12.5937 26.9612 12.8799 26.7502 13.0909L25.159 14.6814ZM29.2498 21.3751H26.9998C26.7014 21.3751 26.4153 21.2566 26.2043 21.0456C25.9933 20.8347 25.8748 20.5485 25.8748 20.2501C25.8748 19.9518 25.9933 19.6656 26.2043 19.4546C26.4153 19.2437 26.7014 19.1251 26.9998 19.1251H29.2498C29.5481 19.1251 29.8343 19.2437 30.0453 19.4546C30.2562 19.6656 30.3748 19.9518 30.3748 20.2501C30.3748 20.5485 30.2562 20.8347 30.0453 21.0456C29.8343 21.2566 29.5481 21.3751 29.2498 21.3751Z" fill="#D3B486"/>
</svg>
