<svg width="35" height="35" viewBox="0 0 35 35" fill="none" xmlns="http://www.w3.org/2000/svg">
<g clip-path="url(#clip0_17_962)">
<path fill-rule="evenodd" clip-rule="evenodd" d="M10.0651 0.449959C9.68957 0.349709 9.29015 0.393031 8.94483 0.571468C8.59951 0.749904 8.3331 1.05064 8.19762 1.41496L3.38262 14.39C2.76834 16.0483 2.78069 17.8738 3.41734 19.5237C4.05398 21.1735 5.27112 22.5341 6.84012 23.35L5.01762 30.155L2.90512 29.5875C2.70546 29.5294 2.49623 29.5118 2.28968 29.5356C2.08313 29.5594 1.88341 29.6242 1.70222 29.7262C1.52104 29.8282 1.36203 29.9654 1.23453 30.1296C1.10702 30.2939 1.01358 30.4819 0.959674 30.6827C0.905769 30.8835 0.892485 31.0931 0.920602 31.2991C0.94872 31.5051 1.01767 31.7034 1.12342 31.8825C1.22916 32.0615 1.36958 32.2176 1.53643 32.3417C1.70329 32.4657 1.89322 32.5552 2.09512 32.605L5.68762 33.5675L5.71762 33.5775L5.75012 33.585L9.34012 34.5475C9.53841 34.6006 9.74524 34.6143 9.9488 34.5875C10.1524 34.5608 10.3486 34.4942 10.5265 34.3916C10.7043 34.289 10.8602 34.1523 10.9852 33.9895C11.1102 33.8266 11.2019 33.6408 11.2551 33.4425C11.3083 33.2442 11.3219 33.0373 11.2952 32.8338C11.2684 32.6302 11.2018 32.4339 11.0992 32.2561C10.9966 32.0783 10.86 31.9224 10.6971 31.7974C10.5343 31.6724 10.3484 31.5806 10.1501 31.5275L8.03762 30.9625L9.86012 24.16C11.6275 24.238 13.3626 23.6677 14.7391 22.5563C16.1157 21.445 17.0388 19.8691 17.3351 18.125L19.6526 4.48246C19.7176 4.0991 19.6373 3.70529 19.4274 3.37798C19.2175 3.05067 18.8931 2.81338 18.5176 2.71246L10.0651 0.449959ZM8.55762 9.42746L10.6326 3.83746L16.3326 5.36246L15.3351 11.245L8.55762 9.42746ZM18.9551 21.19C19.3501 20.375 19.6401 19.49 19.8001 18.5475L21.1076 10.86L26.4451 9.42746L24.3701 3.83746L23.9076 3.96246C23.7092 4.01548 23.5022 4.02889 23.2986 4.00193C23.0949 3.97497 22.8986 3.90816 22.7207 3.80532C22.5429 3.70248 22.3871 3.56562 22.2622 3.40256C22.1372 3.23949 22.0456 3.05342 21.9926 2.85496C21.9396 2.6565 21.9262 2.44954 21.9531 2.2459C21.9801 2.04225 22.0469 1.84591 22.1498 1.66809C22.2526 1.49026 22.3895 1.33444 22.5525 1.2095C22.7156 1.08457 22.9017 0.99298 23.1001 0.939959L24.9351 0.449959C25.311 0.349009 25.711 0.391982 26.0569 0.570468C26.4028 0.748954 26.6696 1.0501 26.8051 1.41496L31.6176 14.39C32.2326 16.0486 32.2206 17.8747 31.5839 19.5251C30.9472 21.1755 29.7297 22.5366 28.1601 23.3525L29.9851 30.1575L32.0951 29.59C32.492 29.4922 32.9115 29.5539 33.2634 29.7618C33.6154 29.9697 33.8718 30.3072 33.9778 30.702C34.0838 31.0968 34.0308 31.5175 33.8303 31.8737C33.6298 32.2299 33.2976 32.4933 32.9051 32.6075L29.3126 33.57L29.2826 33.58L29.2526 33.5875L25.6601 34.55C25.2645 34.6436 24.848 34.5793 24.499 34.3709C24.15 34.1624 23.896 33.8261 23.7909 33.4334C23.6858 33.0407 23.7379 32.6225 23.9361 32.2675C24.1344 31.9126 24.4631 31.6489 24.8526 31.5325L26.9651 30.965L25.1401 24.1625C23.944 24.2138 22.7537 23.9691 21.6747 23.4502C20.5958 22.9312 19.6617 22.1565 18.9551 21.19Z" fill="#D3B486"/>
</g>
<defs>
<clipPath id="clip0_17_962">
<rect width="35" height="35" fill="white"/>
</clipPath>
</defs>
</svg>
