<svg width="37" height="37" viewBox="0 0 37 37" fill="none" xmlns="http://www.w3.org/2000/svg">
<path d="M18.4993 18.3845L15.8785 20.3887C15.7243 20.5172 15.5702 20.5239 15.416 20.4087C15.2618 20.2936 15.2105 20.1456 15.2618 19.9647L16.2639 16.7272L13.566 14.5689C13.4375 14.4404 13.399 14.293 13.4504 14.1265C13.5018 13.96 13.6174 13.8762 13.7973 13.8752H17.1118L18.1139 10.7147C18.1653 10.5349 18.2938 10.445 18.4993 10.445C18.7049 10.445 18.8334 10.5349 18.8848 10.7147L19.8868 13.8752H23.1629C23.3428 13.8752 23.4651 13.9589 23.5298 14.1265C23.5946 14.294 23.5622 14.4415 23.4327 14.5689L20.6962 16.7272L21.6983 19.9647C21.7497 20.1446 21.6983 20.2926 21.5441 20.4087C21.39 20.5249 21.2358 20.5182 21.0816 20.3887L18.4993 18.3845ZM18.4993 32.3752L11.2921 34.7647C10.7782 34.9446 10.309 34.8804 9.88452 34.572C9.46004 34.2637 9.24832 33.8526 9.24935 33.3387V23.5491C8.27296 22.47 7.51497 21.2366 6.97539 19.8491C6.43581 18.4616 6.16602 16.9842 6.16602 15.4168C6.16602 11.9738 7.36081 9.05745 9.75039 6.66787C12.14 4.27829 15.0563 3.0835 18.4993 3.0835C21.9424 3.0835 24.8587 4.27829 27.2483 6.66787C29.6379 9.05745 30.8327 11.9738 30.8327 15.4168C30.8327 16.9842 30.5629 18.4616 30.0233 19.8491C29.4837 21.2366 28.7257 22.47 27.7493 23.5491V33.3387C27.7493 33.8526 27.5371 34.2637 27.1126 34.572C26.6882 34.8804 26.2195 34.9446 25.7066 34.7647L18.4993 32.3752ZM18.4993 24.6668C21.0688 24.6668 23.2528 23.7675 25.0514 21.9689C26.85 20.1703 27.7493 17.9863 27.7493 15.4168C27.7493 12.8474 26.85 10.6634 25.0514 8.86475C23.2528 7.06613 21.0688 6.16683 18.4993 6.16683C15.9299 6.16683 13.7459 7.06613 11.9473 8.86475C10.1487 10.6634 9.24935 12.8474 9.24935 15.4168C9.24935 17.9863 10.1487 20.1703 11.9473 21.9689C13.7459 23.7675 15.9299 24.6668 18.4993 24.6668Z" fill="#D3B486"/>
</svg>
