<svg width="24" height="24" viewBox="0 0 24 24" fill="none" xmlns="http://www.w3.org/2000/svg">
<rect x="2" y="2" width="20" height="20" rx="5" ry="5" stroke="currentColor" stroke-width="2"/>
<path d="M16 11.37C15.9969 11.1748 15.9414 10.9836 15.8389 10.8154C15.7365 10.6473 15.5906 10.5081 15.4156 10.4118C15.2406 10.3154 15.0424 10.2652 14.8418 10.2652C14.6412 10.2652 14.443 10.3154 14.268 10.4118L12 11.73L9.732 10.4118C9.55699 10.3154 9.35881 10.2652 9.15818 10.2652C8.95755 10.2652 8.75937 10.3154 8.58436 10.4118C8.40936 10.5081 8.26346 10.6473 8.161 10.8154C8.05854 10.9836 8.00312 11.1748 8 11.37V15.24C8.00312 15.4352 8.05854 15.6264 8.161 15.7946C8.26346 15.9627 8.40936 16.1019 8.58436 16.1982C8.75937 16.2946 8.95755 16.3448 9.15818 16.3448C9.35881 16.3448 9.55699 16.2946 9.732 16.1982L12 14.88L14.268 16.1982C14.443 16.2946 14.6412 16.3448 14.8418 16.3448C15.0424 16.3448 15.2406 16.2946 15.4156 16.1982C15.5906 16.1019 15.7365 15.9627 15.8389 15.7946C15.9414 15.6264 15.9969 15.4352 16 15.24V11.37Z" stroke="currentColor" stroke-width="2"/>
<circle cx="12" cy="8" r="3" stroke="currentColor" stroke-width="2"/>
</svg>
